Coordinates
version=1
nRows=7
nColumns=40
inDegrees=yes

Units are S.I. units (second, meters, Newtons, ...)
If the header above contains a line with 'inDegrees', this indicates whether rotational values are in degrees (yes) or radians (no).

endheader
time	pelvis_tilt	pelvis_list	pelvis_rotation	pelvis_tx	pelvis_ty	pelvis_tz	hip_flexion_r	hip_adduction_r	hip_rotation_r	knee_angle_r	knee_angle_r_beta	ankle_angle_r	subtalar_angle_r	mtp_angle_r	hip_flexion_l	hip_adduction_l	hip_rotation_l	knee_angle_l	knee_angle_l_beta	ankle_angle_l	subtalar_angle_l	mtp_angle_l	lumbar_extension	lumbar_bending	lumbar_rotation	arm_flex_r	arm_add_r	arm_rot_r	elbow_flex_r	pro_sup_r	wrist_flex_r	wrist_dev_r	arm_flex_l	arm_add_l	arm_rot_l	elbow_flex_l	pro_sup_l	wrist_flex_l	wrist_dev_l
      3.63000000	    -38.01133469	      5.81446677	     -4.56629168	     -0.33153080	      0.62052265	     -0.90387450	    107.19636969	    -18.79695340	     12.86326613	    103.10166514	      1.79946352	     33.80678198	      0.00000000	      0.00000000	    103.91656803	    -28.63257523	      0.80064592	    103.52158866	      1.80679257	     39.12910901	      0.00000000	      0.00000000	    -16.90851412	     -5.67427502	      2.10519709	     16.60837872	    -52.94147393	     89.31517418	     88.06247146	     88.59122698	      0.00000000	      0.00000000	     17.48525152	    -57.15290123	     89.38054071	     94.26023016	     88.22357900	      0.00000000	      0.00000000
      3.63500000	    -38.15341473	      5.79717103	     -4.43429626	     -0.33138675	      0.62154475	     -0.90418657	    107.17245911	    -18.85910037	     12.86972360	    102.92581076	      1.79639428	     33.77335414	      0.00000000	      0.00000000	    103.87092778	    -28.33927946	      0.77479564	    103.29615879	      1.80285808	     39.15662696	      0.00000000	      0.00000000	    -16.75381425	     -5.59960087	      2.02460675	     16.66355120	    -52.90987483	     89.33002043	     88.04206008	     88.60268084	      0.00000000	      0.00000000	     17.54637664	    -57.05582219	     89.38980761	     94.18766755	     88.16975438	      0.00000000	      0.00000000
      3.64000000	    -38.22959970	      5.82133804	     -4.47840793	     -0.33132647	      0.62268014	     -0.90395982	    107.08422869	    -18.72736942	     12.84729382	    102.71937708	      1.79279134	     33.80954864	      0.00000000	      0.00000000	    103.77892033	    -28.29381771	      0.74851518	    103.08501380	      1.79917290	     39.09762914	      0.00000000	      0.00000000	    -16.65593950	     -5.65944250	      2.06436797	     16.74733006	    -52.87100835	     89.33331951	     87.98207951	     88.60864361	      0.00000000	      0.00000000	     17.65016736	    -57.09969589	     89.39164978	     94.37744658	     88.26332854	      0.00000000	      0.00000000
      3.64500000	    -38.37328435	      5.85384833	     -4.52117207	     -0.33108029	      0.62376175	     -0.90375211	    107.04751682	    -18.59047421	     12.83017897	    102.50934303	      1.78912555	     33.78624776	      0.00000000	      0.00000000	    103.73101138	    -28.22419309	      0.73372353	    102.88377203	      1.79566057	     39.09674664	      0.00000000	      0.00000000	    -16.43019686	     -5.72266407	      2.10941857	     16.78035665	    -52.76431432	     89.34317839	     87.83253227	     88.59067249	      0.00000000	      0.00000000	     17.68590090	    -57.05215247	     89.40136881	     94.31245207	     88.23141304	      0.00000000	      0.00000000
      3.65000000	    -38.54522096	      5.81647411	     -4.46901249	     -0.33082609	      0.62496653	     -0.90378427	    106.99533725	    -18.58444103	     12.74417501	    102.31240675	      1.78568836	     33.78615172	      0.00000000	      0.00000000	    103.72476271	    -28.03430092	      0.76283969	    102.64540874	      1.79150034	     39.07800159	      0.00000000	      0.00000000	    -16.17274252	     -5.66511389	      2.10552408	     16.81047267	    -52.71852102	     89.35103250	     87.74051537	     88.61201668	      0.00000000	      0.00000000	     17.70116450	    -56.98762184	     89.40892116	     94.26804950	     88.18098053	      0.00000000	      0.00000000
      3.65500000	    -38.67193330	      5.65347841	     -4.29371174	     -0.33076189	      0.62638518	     -0.90392532	    106.83054001	    -18.68984045	     12.59285204	    102.07916345	      1.78161750	     33.82622890	      0.00000000	      0.00000000	    103.76583200	    -27.71401685	      0.91205987	    102.36599335	      1.78662363	     38.92868498	      0.00000000	      0.00000000	    -16.03047184	     -5.44942052	      2.00343516	     16.89771890	    -52.73493373	     89.35325934	     87.75948140	     88.63271504	      0.00000000	      0.00000000	     17.80972385	    -56.96342067	     89.40707778	     94.36060094	     88.26055634	      0.00000000	      0.00000000
      3.66000000	    -38.72748562	      5.84028133	     -4.37314475	     -0.33035155	      0.62809330	     -0.90369958	    106.74721493	    -18.51132173	     12.72140851	    101.81228857	      1.77695965	     33.72655457	      0.00000000	      0.00000000	    103.44675376	    -27.69145320	      0.65675847	    102.08807787	      1.78177309	     38.97359320	      0.00000000	      0.00000000	    -15.87812142	     -5.69769003	      2.03345404	     16.93805470	    -52.59337616	     89.36688133	     87.47814013	     88.58121518	      0.00000000	      0.00000000	     17.92643575	    -56.95445888	     89.42725027	     94.31012606	     88.24035255	      0.00000000	      0.00000000
